<?xml version="1.0" encoding="utf-8"?>
<!-- Generator: Adobe Illustrator 24.0.3, SVG Export Plug-In . SVG Version: 6.00 Build 0)  -->
<svg version="1.1" id="Layer_1" xmlns="http://www.w3.org/2000/svg" xmlns:xlink="http://www.w3.org/1999/xlink" x="0px" y="0px"
	 viewBox="0 0 200 200" style="enable-background:new 0 0 200 200;" xml:space="preserve">
<style type="text/css">
	.st0{fill:#FD6CA1;}
</style>
<path class="st0" d="M100,0C45.3,0,0,45.3,0,100s45.3,100,100,100s100-45.3,100-100S154.7,0,100,0z M100,42.1
	c14.7,0,26.3,11.6,26.3,26.3c0,14.7-11.6,26.3-26.3,26.3S73.7,83.1,73.7,68.4C73.7,53.7,85.3,42.1,100,42.1L100,42.1z M145.3,141.1
	c-4.2,8.4-25.3,15.8-45.3,16.8c-21-1.1-42.1-8.4-46.3-16.8c-9.5-17.9,22.1-35.8,46.3-35.8S154.7,123.2,145.3,141.1z"/>
</svg>
